<svg width="180" height="180" viewBox="0 0 180 180" fill="none" xmlns="http://www.w3.org/2000/svg">
  <defs>
    <linearGradient id="bgApple" x1="0%" y1="0%" x2="100%" y2="100%">
      <stop offset="0%" style="stop-color:#1a1a1a;stop-opacity:1" />
      <stop offset="100%" style="stop-color:#333333;stop-opacity:1" />
    </linearGradient>
  </defs>
  
  <!-- Background with rounded corners for Apple icon -->
  <rect x="0" y="0" width="180" height="180" rx="36" ry="36" fill="url(#bgApple)"/>
  
  <!-- Film reel outer ring -->
  <circle cx="90" cy="90" r="60" fill="none" stroke="#666" stroke-width="8"/>
  
  <!-- Center hub -->
  <circle cx="90" cy="90" r="20" fill="#666"/>
  <circle cx="90" cy="90" r="10" fill="#888"/>
  
  <!-- Film strip accent -->
  <rect x="15" y="76" width="150" height="28" fill="#e50914" opacity="0.8"/>
  
  <!-- Film perforations -->
  <rect x="20" y="80" width="6" height="5" fill="#1a1a1a"/>
  <rect x="20" y="87" width="6" height="5" fill="#1a1a1a"/>
  <rect x="20" y="94" width="6" height="5" fill="#1a1a1a"/>
  
  <rect x="154" y="80" width="6" height="5" fill="#1a1a1a"/>
  <rect x="154" y="87" width="6" height="5" fill="#1a1a1a"/>
  <rect x="154" y="94" width="6" height="5" fill="#1a1a1a"/>
  
  <!-- Film reel spokes -->
  <line x1="90" y1="30" x2="90" y2="50" stroke="#666" stroke-width="4"/>
  <line x1="90" y1="130" x2="90" y2="150" stroke="#666" stroke-width="4"/>
  <line x1="30" y1="90" x2="50" y2="90" stroke="#666" stroke-width="4"/>
  <line x1="130" y1="90" x2="150" y2="90" stroke="#666" stroke-width="4"/>
</svg>
