<svg width="32" height="32" viewBox="0 0 32 32" fill="none" xmlns="http://www.w3.org/2000/svg">
  <!-- Film reel background -->
  <circle cx="16" cy="16" r="15" fill="#1a1a1a" stroke="#333" stroke-width="2"/>
  
  <!-- Film reel holes -->
  <circle cx="16" cy="16" r="6" fill="none" stroke="#666" stroke-width="1"/>
  <circle cx="16" cy="8" r="2" fill="#333"/>
  <circle cx="24" cy="16" r="2" fill="#333"/>
  <circle cx="16" cy="24" r="2" fill="#333"/>
  <circle cx="8" cy="16" r="2" fill="#333"/>
  
  <!-- Center hub -->
  <circle cx="16" cy="16" r="3" fill="#444"/>
  <circle cx="16" cy="16" r="1.5" fill="#666"/>
  
  <!-- Film strip accent -->
  <path d="M6 12 L26 12 L26 20 L6 20 Z" fill="#e50914" opacity="0.8"/>
  <rect x="7" y="13" width="2" height="1" fill="#fff" opacity="0.6"/>
  <rect x="10" y="13" width="2" height="1" fill="#fff" opacity="0.6"/>
  <rect x="13" y="13" width="2" height="1" fill="#fff" opacity="0.6"/>
  <rect x="17" y="13" width="2" height="1" fill="#fff" opacity="0.6"/>
  <rect x="20" y="13" width="2" height="1" fill="#fff" opacity="0.6"/>
  <rect x="23" y="13" width="2" height="1" fill="#fff" opacity="0.6"/>
  
  <rect x="7" y="18" width="2" height="1" fill="#fff" opacity="0.6"/>
  <rect x="10" y="18" width="2" height="1" fill="#fff" opacity="0.6"/>
  <rect x="13" y="18" width="2" height="1" fill="#fff" opacity="0.6"/>
  <rect x="17" y="18" width="2" height="1" fill="#fff" opacity="0.6"/>
  <rect x="20" y="18" width="2" height="1" fill="#fff" opacity="0.6"/>
  <rect x="23" y="18" width="2" height="1" fill="#fff" opacity="0.6"/>
</svg>
